PathFileType	4	(X/Y/Z)	DARI_DATA/Captury_Subj8_bilateral_squat02.trc
DataRate	CameraRate	NumFrames	NumMarkers	Units	OrigDataRate	OrigDataStartFrame	OrigNumFrames
60	60	6	47	mm	59.99879837036133	30	239
Frame#	Time		LeftUpLeg_		RightUpLeg_		LeftLeg_		RightLeg_		LeftFoot_		RightFoot_		LeftToeBase_		RightToeBase_		Knee_Lateral_r		Knee_Lateral_l		Ankle_Lateral_r		Ankle_Lateral_l		LeftArm_		LeftForeArm_		LeftHand_		LeftHandEE		RightArm_		RightForeArm_		RightHand_		RightHandEE		Spine_		Spine1_		Spine2_		Spine3_		Spine4_		Spine5_		Spine_x		Spine_y		Spine_z		RASI		LASI		RIPS		LIPS		RTHI		LTHI		RTIB		LTIB		RTOE		LTOE		RHEE		LHEE		RHipAngles		LHipAngles		RKneeAngles		LKneeAngles		RAnkleAngles		LAnkleAngles
			X1	Y1	Z1	X2	Y2	Z2	X3	Y3	Z3	X4	Y4	Z4	X5	Y5	Z5	X6	Y6	Z6	X7	Y7	Z7	X8	Y8	Z8	X9	Y9	Z9	X10	Y10	Z10	X11	Y11	Z11	X12	Y12	Z12	X13	Y13	Z13	X14	Y14	Z14	X15	Y15	Z15	X16	Y16	Z16	X17	Y17	Z17	X18	Y18	Z18	X19	Y19	Z19	X20	Y20	Z20	X21	Y21	Z21	X22	Y22	Z22	X23	Y23	Z23	X24	Y24	Z24	X25	Y25	Z25	X26	Y26	Z26	X27	Y27	Z27	X28	Y28	Z28	X29	Y29	Z29	X30	Y30	Z30	X31	Y31	Z31	X32	Y32	Z32	X33	Y33	Z33	X34	Y34	Z34	X35	Y35	Z35	X36	Y36	Z36	X37	Y37	Z37	X38	Y38	Z38	X39	Y39	Z39	X40	Y40	Z40	X41	Y41	Z41	X42	Y42	Z42	X43	Y43	Z43	X44	Y44	Z44	X45	Y45	Z45	X46	Y46	Z46	X47	Y47	Z47

30	0.48333	-87.91711	926.25092	135.07892	88.63313	920.67987	121.32616	-103.57431	502.31094	96.78282	108.84793	496.41068	89.32906	-123.30911	108.47824	101.60828	131.21158	102.84335	100.35549	-154.66345	44.31942	-14.12925	168.80820	37.21010	-12.66394	157.30357	495.72989	95.80055	-152.27762	501.23254	100.92022	177.22287	106.15222	126.08313	-170.53793	111.06575	125.11666	-131.63129	1404.47229	114.81770	-193.25800	1387.77295	-158.46246	-190.06651	1402.28784	-399.13055	-194.16557	1388.57703	-485.95831	146.44566	1404.63013	106.22900	165.00888	1376.30371	-172.35989	150.82489	1385.67590	-412.88635	152.83266	1374.80505	-500.18839	4.66905	1021.68298	143.75883	4.55643	1113.69897	123.27922	3.63889	1178.66138	133.36594	-1.44917	1259.12048	166.42178	-7.18511	1390.03174	157.84717	-27904771620864.00000	0.00000	-27904805175296.00000	54.33994	1020.11560	139.88962	6.08053	1071.46692	141.71185	8.59782	1023.61322	193.41228	143.40581	982.47797	14.21111	-154.61955	991.88214	37.42642	45.91613	991.71686	171.68372	-33.55729	994.22461	177.87445	166.65350	720.62952	118.61962	-164.29974	725.75171	126.11143	160.03252	320.53571	84.51954	-153.26990	267.47360	82.63931	187.04657	21.65664	-85.49117	-171.67284	13.37377	-82.18365	132.10573	44.07918	160.89494	-126.69779	48.77071	161.12787	-6.42939	1.84059	11.72847	-6.63170	-3.02576	0.62460	0.01581	1.13906	-0.04328	0.02810	1.08449	-0.08260	12.60340	5.50566	11.30857	12.48335	5.42829	11.26425
31	0.50000	-87.85779	926.42102	135.26242	88.67313	920.76929	121.29582	-103.60172	502.50055	96.78706	108.89667	496.49609	89.35659	-123.07530	108.65253	101.41900	131.22772	102.92746	100.40444	-154.42584	44.03201	-14.06246	168.73230	37.12218	-12.54555	157.35736	495.82025	95.79072	-152.30261	501.42752	100.95432	177.25909	106.26006	126.09309	-170.29507	111.28020	124.94107	-131.23119	1404.52112	114.02485	-193.30205	1387.57373	-159.13956	-190.08066	1402.52808	-399.78040	-194.41357	1388.70288	-486.57867	146.82191	1404.39771	105.79433	165.88147	1376.09119	-172.76311	151.39047	1386.08459	-413.24628	153.65541	1374.61267	-500.46509	4.77109	1021.83539	143.67690	4.66879	1113.76270	123.04262	3.79252	1178.68909	133.01486	-1.22758	1259.15723	165.92514	-6.85815	1390.00330	157.11174	-27904771620864.00000	0.00000	-27904805175296.00000	54.43655	1020.24530	139.74751	6.19660	1071.61560	141.55057	8.76312	1023.84167	193.32228	143.33128	982.38208	14.01561	-154.66145	991.92242	37.59192	46.04337	991.89893	171.59642	-33.42136	994.44305	177.88344	166.70718	720.72461	118.56360	-164.27576	725.93713	126.25313	160.05936	320.61533	84.52566	-153.15024	267.63794	82.54758	186.90878	21.52401	-85.37870	-171.42770	12.87984	-82.02448	132.14143	44.24884	161.02655	-126.41957	49.17339	161.16934	-6.51419	1.87291	11.75121	-6.74619	-3.04788	0.59388	0.01877	1.12820	-0.04139	0.02816	1.03782	-0.08532	12.68033	5.51166	11.30550	12.72928	5.41852	11.29641
32	0.51667	-87.83274	926.57446	135.67389	88.66590	920.80786	121.35148	-103.42493	502.68298	96.81939	108.79739	496.53220	89.38796	-123.06834	108.84030	101.17591	131.23305	102.96976	100.44096	-154.51556	43.78680	-14.03581	168.68668	36.99584	-12.42754	157.26019	495.84686	95.80504	-152.12152	501.58459	101.02985	177.27400	106.34373	126.10701	-170.26971	111.56010	124.72444	-130.98242	1404.67151	113.31727	-193.26793	1387.43335	-159.78003	-190.14783	1402.83447	-400.39398	-194.62901	1388.91882	-487.17029	147.09932	1404.08289	105.21705	166.47943	1375.89978	-173.33075	151.89281	1386.29138	-413.79126	153.99954	1374.76208	-501.00644	4.85846	1021.96313	143.68410	4.76269	1113.80017	122.85767	3.94864	1178.70044	132.69904	-0.94783	1259.18994	165.45930	-6.47962	1389.97717	156.40591	-27904771620864.00000	0.00000	-27904805175296.00000	54.51484	1020.34076	139.65460	6.30299	1071.73792	141.44475	8.95507	1024.07715	193.31648	143.12900	982.15741	13.82150	-154.80927	991.89172	37.99845	46.17482	992.06885	171.58354	-33.27539	994.66461	178.03073	166.66086	720.74841	118.58373	-164.17053	726.06537	126.54788	160.00299	320.66431	84.54325	-153.08820	267.85278	82.44576	186.81915	21.35546	-85.26260	-171.55936	12.45728	-81.90572	132.17308	44.38153	161.15002	-126.42108	49.59829	161.16089	-6.65170	1.90707	11.84246	-6.92261	-3.11909	0.53843	0.01777	1.15386	-0.04530	0.02146	1.08838	-0.09576	12.76528	5.50755	11.30198	12.99119	5.40710	11.33239
33	0.53333	-87.88373	926.81219	135.93475	88.59367	920.89734	121.41255	-103.63175	502.94897	96.83505	108.93620	496.63120	89.45576	-122.84631	109.08170	100.87440	131.08846	103.05054	100.43230	-154.16295	43.60574	-14.13337	168.52470	36.91428	-12.34687	157.39537	495.96762	95.90266	-152.32968	501.86707	101.03435	177.12122	106.41285	126.11455	-170.06641	111.81172	124.38419	-130.68091	1404.75842	112.91161	-193.16238	1387.31165	-160.12761	-190.34720	1403.24182	-400.71088	-194.42340	1389.25977	-487.49646	147.34857	1403.71497	104.63336	166.62564	1375.81812	-173.95041	151.95328	1386.55945	-414.39032	154.31291	1374.67798	-501.55173	4.88358	1022.14941	143.67131	4.82588	1113.86853	122.69081	4.06794	1178.70300	132.42358	-0.73835	1259.16711	165.05301	-6.18228	1389.86084	155.78778	-27904771620864.00000	0.00000	-27904805175296.00000	54.53398	1020.48535	139.58562	6.36023	1071.91919	141.34494	9.04069	1024.34558	193.29509	142.97173	982.02435	13.71298	-154.93071	992.00891	38.22715	46.21217	992.27399	171.57285	-33.22848	994.93652	178.10995	166.68057	720.87317	118.69014	-164.29724	726.33789	126.67784	160.01935	320.72815	84.59450	-153.02892	268.07574	82.24912	186.66019	21.23588	-85.17300	-171.11743	12.15365	-81.96894	131.95146	44.53038	161.20810	-126.20505	50.04704	161.06311	-6.76571	1.98990	11.93509	-7.05387	-3.15350	0.46611	0.02058	1.08592	-0.05166	0.02548	1.00119	-0.11160	12.84380	5.50438	11.30079	13.22804	5.40660	11.37859
34	0.55000	-87.91745	927.07660	136.53177	88.53114	921.13910	121.67278	-103.60123	503.24704	97.04301	108.86993	496.88535	89.54970	-122.96555	109.37918	100.21779	131.03568	103.30038	100.34290	-154.45486	43.91008	-14.74673	168.17047	37.11734	-12.50847	157.34564	496.22906	95.87159	-152.29437	502.14886	101.29324	177.13693	106.66625	125.90151	-170.16194	112.11927	123.77390	-130.47888	1405.26562	112.83141	-193.18175	1387.51392	-160.13744	-190.25862	1403.71997	-400.70102	-193.94858	1389.41614	-487.45145	147.54663	1403.28345	103.92258	166.53314	1375.64966	-174.70740	151.75946	1386.76453	-415.12415	154.30275	1374.61084	-502.24286	4.86437	1022.42609	143.93562	4.78636	1114.05322	122.81204	4.08890	1178.84448	132.44337	-0.56995	1259.30579	164.95355	-5.86105	1389.93311	155.49367	-27904771620864.00000	0.00000	-27904805175296.00000	54.50666	1020.75562	139.75517	6.33620	1072.19214	141.52769	9.11880	1024.70068	193.54762	142.69751	982.09595	13.77026	-155.15628	992.11865	38.85292	46.24776	992.59491	171.80322	-33.17991	995.26758	178.49194	166.64783	721.13019	118.69553	-164.29066	726.59204	127.16444	159.93295	320.98187	84.49697	-153.10455	268.42633	81.97928	186.10541	21.46367	-85.38956	-171.49464	12.54436	-82.60092	132.04910	44.80276	161.13808	-126.30112	50.35519	160.41824	-6.87270	2.00655	11.89592	-7.19901	-3.18327	0.42279	0.02154	1.07249	-0.05568	0.10190	1.03077	-0.11994	12.88363	5.50770	11.30041	13.35945	5.41708	11.40807
35	0.56667	-87.86484	926.68060	136.44406	88.59563	920.70038	121.74391	-103.65736	502.85934	96.91071	108.82957	496.43854	89.66135	-122.99709	108.99426	100.54271	130.91409	102.85019	100.49857	-154.32597	43.42380	-14.40788	167.97993	36.66976	-12.37702	157.30817	495.77277	95.96024	-152.35788	501.78094	101.08080	177.02840	106.20502	126.03510	-170.23041	111.75249	124.02256	-130.25072	1405.39014	113.05203	-193.04099	1387.44385	-159.88397	-189.72404	1404.24280	-400.40173	-193.54472	1389.79333	-487.12238	147.47847	1402.82935	103.48383	165.94579	1375.68152	-175.22882	151.58311	1386.89221	-415.66605	153.88057	1374.41040	-502.74521	4.92644	1022.02136	143.84254	4.87747	1113.72180	122.63818	4.17148	1178.61304	132.21509	-0.52153	1259.19238	164.65829	-5.83962	1389.90222	155.09070	-27904771620864.00000	0.00000	-27904805175296.00000	54.57208	1020.33887	139.70677	6.40869	1071.78503	141.39096	9.13812	1024.34009	193.45615	142.86598	981.55078	13.83353	-155.00786	991.64569	38.64812	46.28061	992.20844	171.77304	-33.15241	994.90039	178.39027	166.66867	720.67462	118.75314	-164.30472	726.22784	126.94220	159.85152	320.52313	84.60837	-153.11942	268.01636	82.06013	185.86534	21.08444	-85.28493	-171.26395	12.06104	-82.28892	131.94296	44.34631	161.28748	-126.39812	50.01943	160.78766	-6.91410	2.00184	11.81906	-7.25574	-3.17735	0.38046	0.02029	1.07213	-0.05610	0.02649	1.00993	-0.11206	12.87043	5.50786	11.29796	13.33766	5.43140	11.39662
